<svg xmlns="http://www.w3.org/2000/svg" xmlns:xlink="http://www.w3.org/1999/xlink" preserveAspectRatio="xMidYMid" width="7.75" height="7.75" viewBox="0 0 7.75 7.75">
  <defs>
    <style>
      .cls-1 {
        fill: #535a6c;
        fill-rule: evenodd;
      }
    </style>
  </defs>
  <path d="M7.648,7.194 L5.784,5.329 C6.246,4.765 6.525,4.044 6.525,3.257 C6.525,1.452 5.061,-0.012 3.257,-0.012 C1.451,-0.012 -0.011,1.452 -0.011,3.257 C-0.011,5.061 1.451,6.526 3.257,6.526 C4.043,6.526 4.763,6.249 5.327,5.786 L7.191,7.650 C7.318,7.776 7.522,7.776 7.648,7.650 C7.775,7.525 7.775,7.319 7.648,7.194 ZM3.257,5.875 C1.812,5.875 0.638,4.701 0.638,3.257 C0.638,1.813 1.812,0.637 3.257,0.637 C4.700,0.637 5.876,1.813 5.876,3.257 C5.876,4.701 4.700,5.875 3.257,5.875 Z" class="cls-1"/>
</svg>
