<svg xmlns="http://www.w3.org/2000/svg" xmlns:xlink="http://www.w3.org/1999/xlink" preserveAspectRatio="xMidYMid" width="92.625" height="79.562" viewBox="0 0 92.625 79.562">
  <defs>
    <style>
      .cls-1 {
        fill: #fa6900;
        filter: url(#color-overlay-1);
        fill-rule: evenodd;
      }
    </style>

    <filter id="color-overlay-1" filterUnits="userSpaceOnUse">
      <feFlood flood-color="#69d2e7"/>
      <feComposite operator="in" in2="SourceGraphic"/>
      <feBlend in2="SourceGraphic" result="solidFill"/>
    </filter>
  </defs>
  <path d="M90.437,45.318 L78.405,45.318 L70.382,31.107 C70.019,30.378 69.293,30.015 68.552,30.015 L52.148,30.015 L44.851,17.272 L52.874,3.061 C53.615,2.335 53.237,0.880 52.148,0.139 C51.056,-0.224 49.952,0.139 49.225,1.228 L41.205,15.079 L26.251,15.079 L18.216,1.228 C17.489,0.139 16.037,-0.224 15.296,0.139 C14.207,0.880 13.841,2.335 14.582,3.061 L22.605,17.272 L14.582,31.107 C13.841,31.834 13.841,32.574 14.582,33.301 L22.605,47.511 L14.933,60.254 L2.175,60.254 C1.068,60.254 -0.007,61.347 -0.007,62.436 C-0.007,63.525 1.068,64.614 2.175,64.614 L14.933,64.614 L22.953,78.476 C23.331,79.205 24.057,79.569 24.784,79.569 L42.294,79.569 C43.021,79.569 43.762,79.205 44.110,78.476 L52.148,64.614 L68.552,64.614 C69.293,64.614 70.019,64.266 70.382,63.525 L78.405,49.314 L90.437,49.314 C91.904,49.314 92.630,48.600 92.630,47.511 C92.630,46.044 91.904,45.318 90.437,45.318 L90.437,45.318 ZM26.251,19.453 L26.251,19.453 L41.205,19.453 L48.499,32.211 L41.205,45.318 L26.251,45.318 L18.593,32.211 L26.251,19.453 ZM41.205,75.194 L41.205,75.194 L26.251,75.194 L18.593,62.436 L26.251,49.314 L41.205,49.314 L48.499,62.436 L41.205,75.194 Z" class="cls-1"/>
</svg>
