<svg xmlns="http://www.w3.org/2000/svg" xmlns:xlink="http://www.w3.org/1999/xlink" preserveAspectRatio="xMidYMid" width="92.688" height="76.031" viewBox="0 0 92.688 76.031">
  <defs>
    <style>
      .cls-1 {
        fill: #69d2e7;
        fill-rule: evenodd;
      }
    </style>
  </defs>
  <path d="M73.243,55.918 C74.332,55.207 75.436,55.918 76.162,57.022 C76.525,57.385 76.162,58.111 76.162,58.838 L78.706,67.224 L73.606,59.930 C72.865,59.567 72.516,59.201 72.138,58.838 C71.424,57.748 72.138,56.296 73.243,55.918 L73.243,55.918 ZM42.596,18.034 L42.596,18.034 C44.789,14.751 43.700,10.028 40.051,7.835 C36.391,5.639 31.653,7.109 29.460,10.739 L17.791,30.795 C19.984,33.714 20.347,37.348 18.532,40.252 L15.597,45.005 C13.416,49.017 8.315,50.454 4.306,48.276 C0.295,45.731 -1.172,40.616 1.006,36.985 L3.929,31.884 C5.759,28.962 8.678,27.509 11.964,27.872 L23.633,7.109 C27.641,0.190 36.391,-2.004 43.322,2.023 C50.253,6.016 52.809,14.751 48.801,21.682 L41.143,34.426 L35.301,45.005 L27.641,57.748 C25.811,61.397 26.915,66.120 30.564,68.313 C34.209,70.506 38.947,69.039 40.780,65.406 L42.959,62.123 L38.947,59.930 C36.769,58.475 36.043,55.555 37.117,53.374 L61.937,10.739 C63.011,8.561 65.948,7.472 68.505,8.924 L90.387,21.319 C92.569,22.772 93.295,25.694 92.206,28.235 L82.715,44.264 C90.387,48.639 92.932,58.475 88.557,66.120 C84.182,73.777 74.332,76.334 66.675,71.947 L66.675,71.947 C65.207,73.036 62.663,73.414 60.833,72.310 L48.801,65.406 L46.970,68.676 C42.959,75.607 34.209,78.137 27.266,74.140 C20.347,70.129 17.791,61.397 21.802,54.466 L29.097,41.720 L35.301,31.143 L42.596,18.034 ZM84.548,63.575 L84.548,63.575 C87.468,58.111 85.652,50.832 80.174,47.913 C74.695,44.642 67.401,46.443 64.478,51.921 C61.196,57.748 63.011,64.665 68.505,67.950 C73.969,70.855 81.263,69.039 84.548,63.575 L84.548,63.575 Z" class="cls-1"/>
</svg>
