<svg xmlns="http://www.w3.org/2000/svg" xmlns:xlink="http://www.w3.org/1999/xlink" preserveAspectRatio="xMidYMid" width="81.375" height="92.562" viewBox="0 0 81.375 92.562">
  <defs>
    <style>
      .cls-1 {
        fill: #fa6900;
        filter: url(#color-overlay-1);
        fill-rule: evenodd;
      }
    </style>

    <filter id="color-overlay-1" filterUnits="userSpaceOnUse">
      <feFlood flood-color="#69d2e7"/>
      <feComposite operator="in" in2="SourceGraphic"/>
      <feBlend in2="SourceGraphic" result="solidFill"/>
    </filter>
  </defs>
  <path d="M40.497,37.896 C36.110,37.896 32.098,41.545 32.098,46.282 C32.098,50.639 36.110,54.651 40.497,54.651 C45.234,54.651 48.883,50.639 48.883,46.282 C48.883,41.545 45.234,37.896 40.497,37.896 L40.497,37.896 ZM76.244,71.421 L76.244,71.421 C75.518,72.510 74.051,73.236 72.581,73.962 C70.765,74.703 68.572,75.051 66.391,75.051 C63.834,75.051 60.915,74.703 57.992,73.962 C58.370,72.147 59.096,70.695 59.460,68.861 C60.549,65.231 61.290,61.219 61.656,56.844 C64.560,54.303 67.117,51.743 69.676,48.824 C70.039,49.550 70.402,49.928 70.765,50.291 C72.959,53.213 74.777,56.118 75.881,59.041 C76.970,61.945 77.696,64.505 77.696,66.320 C77.696,68.498 77.348,69.953 76.244,71.421 L76.244,71.421 ZM54.710,72.873 L54.710,72.873 C52.892,72.510 51.439,71.784 49.624,71.421 C47.791,70.695 45.960,69.602 44.145,68.861 C47.065,67.046 50.335,65.594 53.255,63.412 C54.710,62.308 56.177,61.219 57.644,60.130 C56.903,64.853 56.177,69.239 54.710,72.873 L54.710,72.873 ZM53.255,77.248 L53.255,77.248 C51.439,80.893 49.246,83.816 47.065,85.994 C45.960,87.083 44.856,87.812 43.782,88.176 C43.041,88.917 41.586,89.265 40.497,89.265 C39.407,89.265 38.303,88.917 37.199,88.176 C35.396,87.449 33.565,85.631 31.750,83.438 C30.283,81.245 28.813,79.063 27.723,76.159 C29.554,75.429 31.009,75.051 32.824,74.325 C35.396,73.236 37.940,72.147 40.497,70.695 C43.041,72.147 45.960,73.236 48.154,74.325 C49.972,75.051 51.802,75.795 53.633,76.159 C53.255,76.522 53.255,76.885 53.255,77.248 L53.255,77.248 ZM25.167,67.772 L25.167,67.772 C24.441,65.594 24.078,62.671 23.349,59.767 C24.804,60.856 26.271,61.945 27.723,63.034 C30.646,65.231 33.928,67.046 36.836,68.861 C35.018,69.602 33.187,70.331 31.750,71.043 C29.917,71.784 28.087,72.147 26.634,72.873 C25.908,71.421 25.530,69.602 25.167,67.772 L25.167,67.772 ZM14.951,74.703 L14.951,74.703 C12.394,74.703 10.213,74.325 8.760,73.614 C6.930,73.236 5.478,72.147 4.749,71.043 C3.660,69.602 3.282,68.135 3.282,65.957 C3.282,64.127 4.023,61.582 5.115,58.663 C6.567,55.740 8.760,52.109 11.683,48.824 L11.683,49.202 C14.224,51.380 16.781,54.303 19.703,56.844 C20.429,63.034 21.519,68.498 23.349,73.614 C20.066,74.325 17.144,74.703 14.951,74.703 L14.951,74.703 ZM19.340,51.743 L19.340,51.743 C17.144,49.928 15.328,48.113 13.876,45.916 L14.224,45.553 C15.692,43.723 17.510,42.271 19.340,40.455 C18.962,42.271 18.962,44.101 18.962,46.282 C18.962,48.113 18.962,49.928 19.340,51.743 L19.340,51.743 ZM5.115,33.521 L5.115,33.521 C4.023,30.617 3.660,28.057 3.660,25.879 C3.660,24.049 4.023,22.245 5.115,21.141 C5.841,20.037 7.293,18.948 8.760,18.600 C10.576,17.859 12.394,17.510 14.951,17.510 C17.144,17.510 20.066,17.859 23.349,18.600 C22.623,20.037 22.260,21.867 21.897,23.700 C20.792,27.331 20.066,31.343 19.703,35.354 C16.781,38.259 13.876,40.818 11.683,43.360 C11.305,43.012 10.942,42.634 10.576,42.271 C8.382,39.000 6.567,36.081 5.115,33.521 L5.115,33.521 ZM26.634,19.326 L26.634,19.326 C28.087,20.037 29.917,20.415 31.750,21.141 C33.565,21.867 35.018,22.608 37.199,23.700 C33.928,25.153 31.009,26.968 28.087,29.164 C26.634,30.254 24.804,31.343 23.349,32.432 C24.078,27.709 25.167,23.337 26.634,19.326 L26.634,19.326 ZM28.087,15.314 L28.087,15.314 C29.917,11.669 31.750,8.398 33.928,6.205 C35.018,5.479 36.110,4.749 37.199,4.023 C38.303,3.645 39.407,3.297 40.497,3.297 C41.586,3.297 43.041,3.645 43.782,4.023 C45.960,4.749 47.791,6.568 49.624,9.124 C51.076,11.317 52.165,13.499 53.633,16.418 C51.802,17.133 49.972,17.510 48.517,18.236 C45.960,19.326 43.419,20.037 40.845,21.504 C37.940,20.037 35.396,18.948 32.824,18.236 C31.009,17.510 29.554,16.769 27.723,16.418 C28.087,16.040 28.087,15.677 28.087,15.314 L28.087,15.314 ZM56.177,24.427 L56.177,24.427 C56.903,26.968 57.266,29.891 57.644,32.432 C56.177,31.343 55.088,30.254 53.255,29.164 C50.335,26.968 47.428,25.153 44.508,23.700 C46.324,22.608 47.791,21.867 49.624,21.504 C51.439,20.778 53.255,20.037 54.710,19.689 C55.088,21.141 55.814,22.608 56.177,24.427 L56.177,24.427 ZM58.719,46.282 L58.719,46.282 C58.719,49.202 58.719,52.109 58.370,55.029 C56.177,56.844 53.981,58.663 51.439,60.493 C47.791,63.034 44.145,65.231 40.497,67.046 C36.836,65.231 33.187,63.034 29.917,60.493 C27.360,58.663 25.167,56.844 22.971,55.029 C22.623,52.109 22.623,49.202 22.623,46.282 C22.623,43.012 22.623,40.089 22.971,37.170 C25.167,35.354 27.360,33.899 29.917,32.069 C33.565,29.528 37.199,27.331 40.845,25.516 C44.145,27.331 47.791,29.528 51.439,32.069 C53.981,33.899 56.177,35.354 58.370,37.170 C58.719,40.089 58.719,43.360 58.719,46.282 L58.719,46.282 ZM62.019,40.455 L62.019,40.455 C63.834,42.634 66.028,44.449 67.483,46.282 L67.117,47.023 C65.301,48.824 63.834,50.291 62.019,51.743 C62.019,49.928 62.019,48.113 62.019,46.282 C62.019,44.449 62.019,42.634 62.019,40.455 L62.019,40.455 ZM66.391,17.859 L66.391,17.859 C68.935,17.859 71.128,18.236 72.581,18.600 C74.414,19.326 75.518,20.037 76.592,21.504 C77.348,22.608 77.696,24.427 77.696,26.242 C77.696,28.435 77.348,30.980 76.244,33.521 C74.777,36.807 72.581,40.089 69.676,43.723 L69.313,43.360 C67.117,40.818 64.560,38.259 61.656,35.718 C60.915,29.528 59.823,23.700 57.992,18.948 C61.290,18.236 63.834,17.859 66.391,17.859 L66.391,17.859 ZM71.855,46.282 L71.855,46.282 C72.581,45.916 72.959,45.190 73.688,44.449 C75.881,41.182 77.696,37.896 79.164,34.992 C80.604,32.069 81.360,29.164 81.360,26.242 C81.360,23.700 80.604,21.504 79.164,19.326 C77.696,17.510 75.881,16.418 73.688,15.677 C71.506,14.588 68.935,14.225 66.391,14.225 C63.471,14.225 60.186,14.951 56.903,15.677 C56.540,14.951 56.540,14.588 56.177,14.225 C54.359,9.850 52.165,6.205 49.624,4.023 C48.154,2.556 46.687,1.830 45.234,1.104 C43.782,0.378 42.315,0.015 40.497,0.015 C39.029,0.015 37.577,0.378 35.759,1.104 C33.187,2.208 31.009,4.386 28.813,6.931 C27.360,9.487 25.908,12.410 24.441,15.314 C21.156,14.588 17.888,14.225 14.951,14.225 C12.394,14.225 9.850,14.588 7.671,15.314 C5.478,16.040 3.660,17.510 2.192,18.948 C0.740,20.778 0.362,23.337 0.362,25.879 C0.362,28.798 0.740,31.706 2.192,34.628 C3.660,38.259 6.204,42.271 9.123,45.916 C8.760,46.646 8.034,47.372 7.671,48.113 C5.115,51.380 3.282,54.303 1.829,57.570 C0.740,60.493 0.014,63.412 0.014,65.957 C0.014,68.498 0.740,71.043 1.829,72.873 C3.282,74.703 5.115,76.159 7.293,76.885 C9.487,77.626 12.046,77.974 14.951,77.974 C17.888,77.974 20.792,77.626 24.441,76.885 C24.441,77.248 24.804,77.974 25.167,78.337 C26.982,82.348 29.176,85.994 31.750,88.539 C33.187,89.643 34.292,90.732 35.759,91.458 C37.577,92.184 39.029,92.547 40.497,92.547 C42.315,92.547 43.782,92.184 45.234,91.458 C47.791,90.369 50.335,88.176 52.165,85.253 C53.981,83.075 55.451,80.152 56.903,77.248 C60.186,77.974 63.471,78.337 66.391,78.337 C68.935,78.337 71.506,77.974 73.688,77.248 C75.881,76.522 77.696,75.051 78.786,73.236 C80.256,71.421 80.982,68.861 80.982,66.320 C80.982,63.763 80.256,60.856 79.164,57.570 C77.348,53.940 75.140,50.291 71.855,46.282 L71.855,46.282 Z" class="cls-1"/>
</svg>
